<?xml version="1.0" encoding="UTF-8" standalone="no"?>
<!DOCTYPE svg PUBLIC "-//W3C//DTD SVG 1.1//EN"
 "http://www.w3.org/Graphics/SVG/1.1/DTD/svg11.dtd">
<!-- Generated by graphviz version 2.36.0 (20140111.2315)
 -->
<!-- Title: models_diagram Pages: 1 -->
<svg width="2723pt" height="498pt"
 viewBox="0.00 0.00 2723.00 498.00" xmlns="http://www.w3.org/2000/svg" xmlns:xlink="http://www.w3.org/1999/xlink">
<g id="graph0" class="graph" transform="scale(1 1) rotate(0) translate(4 494)">
<title>models_diagram</title>
<polygon fill="none" stroke="none" points="-4,4 -4,-494 2719,-494 2719,4 -4,4"/>
<!-- _diagram_info -->
<g id="node1" class="node"><title>_diagram_info</title>
<text text-anchor="start" x="398" y="-475.6" font-family="Times,serif" font-size="13.00">Models diagram</text>
<text text-anchor="start" x="398" y="-461.6" font-family="Times,serif" font-size="13.00">Date: Nov 22 2016 &#45; 20:03</text>
<text text-anchor="start" x="398" y="-447.6" font-family="Times,serif" font-size="13.00">Migration version: 104</text>
<text text-anchor="start" x="398" y="-433.6" font-family="Times,serif" font-size="13.00">Generated by RailRoady 1.5.2</text>
<text text-anchor="start" x="398" y="-419.6" font-family="Times,serif" font-size="13.00">http://railroady.prestonlee.com</text>
</g>
<!-- Categorization -->
<g id="node2" class="node"><title>Categorization</title>
<ellipse fill="none" stroke="black" cx="137" cy="-254" rx="62.0922" ry="18"/>
<text text-anchor="middle" x="137" y="-250.3" font-family="Times,serif" font-size="14.00">Categorization</text>
</g>
<!-- Notification -->
<g id="node3" class="node"><title>Notification</title>
<ellipse fill="none" stroke="black" cx="734" cy="-92" rx="52.9443" ry="18"/>
<text text-anchor="middle" x="734" y="-88.3" font-family="Times,serif" font-size="14.00">Notification</text>
</g>
<!-- PostType -->
<g id="node4" class="node"><title>PostType</title>
<ellipse fill="none" stroke="black" cx="1025" cy="-451" rx="44.2946" ry="18"/>
<text text-anchor="middle" x="1025" y="-447.3" font-family="Times,serif" font-size="14.00">PostType</text>
</g>
<!-- Article -->
<g id="node5" class="node"><title>Article</title>
<ellipse fill="none" stroke="black" cx="625" cy="-451" rx="35.1455" ry="18"/>
<text text-anchor="middle" x="625" y="-447.3" font-family="Times,serif" font-size="14.00">Article</text>
</g>
<!-- Article&#45;&gt;Categorization -->
<g id="edge10" class="edge"><title>Article&#45;&gt;Categorization</title>
<path fill="none" stroke="#472ea4" d="M605.545,-428.391C598.491,-421.963 590.021,-415.664 581,-412 518.507,-386.615 343.766,-408.987 278,-394 239.133,-385.143 224.773,-386.508 195,-360 171.154,-338.769 155.068,-305.309 145.999,-281.882"/>
<ellipse fill="none" stroke="#472ea4" cx="608.727" cy="-431.474" rx="4.00002" ry="4.00002"/>
<polygon fill="#472ea4" stroke="#472ea4" points="145.894,-281.594 146.654,-270.655 144.163,-276.903 142.432,-272.212 142.432,-272.212 142.432,-272.212 144.163,-276.903 138.21,-273.77 145.894,-281.594 145.894,-281.594"/>
</g>
<!-- Article&#45;&gt;Notification -->
<g id="edge1" class="edge"><title>Article&#45;&gt;Notification</title>
<path fill="none" stroke="#259fea" d="M604.963,-428.644C597.963,-422.357 589.672,-416.077 581,-412 537.359,-391.481 516.021,-417.66 474,-394 447.914,-379.312 430,-372.937 430,-343 430,-343 430,-343 430,-209 430,-156.632 589.461,-119.272 677.403,-102.651"/>
<ellipse fill="none" stroke="#259fea" cx="608.097" cy="-431.608" rx="4.00002" ry="4.00002"/>
<polygon fill="#259fea" stroke="#259fea" points="677.666,-102.602 688.32,-105.198 682.582,-101.688 687.498,-100.774 687.498,-100.774 687.498,-100.774 682.582,-101.688 686.676,-96.35 677.666,-102.602 677.666,-102.602"/>
</g>
<!-- Resource -->
<g id="node8" class="node"><title>Resource</title>
<ellipse fill="none" stroke="black" cx="248" cy="-342" rx="43.319" ry="18"/>
<text text-anchor="middle" x="248" y="-338.3" font-family="Times,serif" font-size="14.00">Resource</text>
</g>
<!-- Article&#45;&gt;Resource -->
<g id="edge9" class="edge"><title>Article&#45;&gt;Resource</title>
<path fill="none" stroke="#851428" d="M605.532,-428.422C598.478,-421.997 590.01,-415.692 581,-412 467.661,-365.562 419.131,-440.942 306,-394 291.788,-388.103 278.664,-377.246 268.507,-367.06"/>
<ellipse fill="none" stroke="#851428" cx="608.714" cy="-431.503" rx="4.00002" ry="4.00002"/>
<polygon fill="#851428" stroke="#851428" points="268.223,-366.759 264.619,-356.402 264.786,-363.127 261.35,-359.494 261.35,-359.494 261.35,-359.494 264.786,-363.127 258.081,-362.587 268.223,-366.759 268.223,-366.759"/>
</g>
<!-- Category -->
<g id="node12" class="node"><title>Category</title>
<ellipse fill="none" stroke="black" cx="42" cy="-342" rx="42.3456" ry="18"/>
<text text-anchor="middle" x="42" y="-338.3" font-family="Times,serif" font-size="14.00">Category</text>
</g>
<!-- Article&#45;&gt;Category -->
<g id="edge11" class="edge"><title>Article&#45;&gt;Category</title>
<path fill="none" stroke="#a8978c" d="M604.269,-427.125C597.488,-421.112 589.497,-415.371 581,-412 494.37,-377.635 252.902,-414.557 162,-394 131.727,-387.154 99.4597,-373.012 76.0179,-361.353"/>
<polygon fill="#a8978c" stroke="#a8978c" points="604.412,-427.262 608.515,-437.431 608.021,-430.722 611.63,-434.183 611.63,-434.183 611.63,-434.183 608.021,-430.722 614.744,-430.934 604.412,-427.262 604.412,-427.262"/>
<polygon fill="#a8978c" stroke="#a8978c" points="75.7752,-361.23 68.8975,-352.689 71.3173,-358.965 66.8595,-356.701 66.8595,-356.701 66.8595,-356.701 71.3173,-358.965 64.8215,-360.713 75.7752,-361.23 75.7752,-361.23"/>
</g>
<!-- Tag -->
<g id="node14" class="node"><title>Tag</title>
<ellipse fill="none" stroke="black" cx="375" cy="-342" rx="27" ry="18"/>
<text text-anchor="middle" x="375" y="-338.3" font-family="Times,serif" font-size="14.00">Tag</text>
</g>
<!-- Article&#45;&gt;Tag -->
<g id="edge16" class="edge"><title>Article&#45;&gt;Tag</title>
<path fill="none" stroke="#57fd4a" d="M603.8,-427.187C597.086,-421.286 589.248,-415.59 581,-412 513.36,-382.561 480.697,-429.442 416,-394 405.015,-387.982 395.888,-377.689 389.055,-367.918"/>
<polygon fill="#57fd4a" stroke="#57fd4a" points="603.848,-427.232 608.035,-437.367 607.485,-430.663 611.122,-434.094 611.122,-434.094 611.122,-434.094 607.485,-430.663 614.21,-430.82 603.848,-427.232 603.848,-427.232"/>
<polygon fill="#57fd4a" stroke="#57fd4a" points="388.867,-367.628 387.217,-356.787 386.152,-363.429 383.438,-359.23 383.438,-359.23 383.438,-359.23 386.152,-363.429 379.659,-361.674 388.867,-367.628 388.867,-367.628"/>
</g>
<!-- Feedback -->
<g id="node17" class="node"><title>Feedback</title>
<ellipse fill="none" stroke="black" cx="1207" cy="-342" rx="44.2946" ry="18"/>
<text text-anchor="middle" x="1207" y="-338.3" font-family="Times,serif" font-size="14.00">Feedback</text>
</g>
<!-- Article&#45;&gt;Feedback -->
<g id="edge8" class="edge"><title>Article&#45;&gt;Feedback</title>
<path fill="none" stroke="#9d3675" d="M667.33,-445.449C780.542,-433.224 1083.15,-400.179 1104,-394 1128.94,-386.61 1155.19,-373.523 1174.94,-362.456"/>
<ellipse fill="none" stroke="#9d3675" cx="663.171" cy="-445.898" rx="4" ry="4"/>
<polygon fill="#9d3675" stroke="#9d3675" points="1175.13,-362.348 1186.05,-361.286 1179.47,-359.864 1183.81,-357.381 1183.81,-357.381 1183.81,-357.381 1179.47,-359.864 1181.58,-353.475 1175.13,-362.348 1175.13,-362.348"/>
</g>
<!-- Article&#45;&gt;Feedback -->
<g id="edge15" class="edge"><title>Article&#45;&gt;Feedback</title>
<path fill="none" stroke="#4d79ee" d="M666.726,-444.429C727.548,-435.899 843.888,-418.027 941,-394 963.649,-388.396 968.306,-383.422 991,-378 1040.04,-366.284 1053.23,-368.067 1103,-360 1120.35,-357.188 1139.32,-354.093 1156.26,-351.323"/>
<ellipse fill="none" stroke="#4d79ee" cx="662.482" cy="-445.02" rx="4.00001" ry="4.00001"/>
<polygon fill="#4d79ee" stroke="#4d79ee" points="1156.64,-351.26 1167.23,-354.086 1161.57,-350.453 1166.5,-349.645 1166.5,-349.645 1166.5,-349.645 1161.57,-350.453 1165.78,-345.204 1156.64,-351.26 1156.64,-351.26"/>
<text text-anchor="middle" x="1045.5" y="-382.3" font-family="Times,serif" font-size="14.00">published_feedback</text>
</g>
<!-- Ping -->
<g id="node19" class="node"><title>Ping</title>
<ellipse fill="none" stroke="black" cx="485" cy="-342" rx="27" ry="18"/>
<text text-anchor="middle" x="485" y="-338.3" font-family="Times,serif" font-size="14.00">Ping</text>
</g>
<!-- Article&#45;&gt;Ping -->
<g id="edge6" class="edge"><title>Article&#45;&gt;Ping</title>
<path fill="none" stroke="#f88cf0" d="M604.927,-428.721C597.924,-422.438 589.641,-416.142 581,-412 541.067,-392.858 511.344,-428.025 483,-394 477.516,-387.417 476.46,-378.532 477.269,-370.023"/>
<ellipse fill="none" stroke="#f88cf0" cx="608.062" cy="-431.679" rx="4.00002" ry="4.00002"/>
<polygon fill="#f88cf0" stroke="#f88cf0" points="477.297,-369.861 483.443,-360.779 478.153,-364.935 479.009,-360.009 479.009,-360.009 479.009,-360.009 478.153,-364.935 474.576,-359.239 477.297,-369.861 477.297,-369.861"/>
</g>
<!-- Redirect -->
<g id="node20" class="node"><title>Redirect</title>
<ellipse fill="none" stroke="black" cx="846" cy="-92" rx="39.9464" ry="18"/>
<text text-anchor="middle" x="846" y="-88.3" font-family="Times,serif" font-size="14.00">Redirect</text>
</g>
<!-- Article&#45;&gt;Redirect -->
<g id="edge4" class="edge"><title>Article&#45;&gt;Redirect</title>
<path fill="none" stroke="#71d7d5" d="M629.542,-422.448C635.808,-389.4 649.13,-333.073 673,-290 713.063,-217.707 783.332,-148.855 820.799,-114.935"/>
<polygon fill="#71d7d5" stroke="#71d7d5" points="629.466,-422.87 623.255,-431.908 628.574,-427.79 627.683,-432.71 627.683,-432.71 627.683,-432.71 628.574,-427.79 632.111,-433.512 629.466,-422.87 629.466,-422.87"/>
<polygon fill="#71d7d5" stroke="#71d7d5" points="820.826,-114.911 831.277,-111.59 824.55,-111.575 828.274,-108.238 828.274,-108.238 828.274,-108.238 824.55,-111.575 825.271,-104.887 820.826,-114.911 820.826,-114.911"/>
</g>
<!-- User -->
<g id="node23" class="node"><title>User</title>
<ellipse fill="none" stroke="black" cx="902" cy="-254" rx="26.949" ry="18"/>
<text text-anchor="middle" x="902" y="-250.3" font-family="Times,serif" font-size="14.00">User</text>
</g>
<!-- Article&#45;&gt;User -->
<g id="edge2" class="edge"><title>Article&#45;&gt;User</title>
<path fill="none" stroke="#2a23f3" d="M669.621,-446.608C737.953,-440.48 863.891,-425.194 895,-394 928.124,-360.785 920.115,-336.367 913,-290 912.58,-287.261 911.985,-284.443 911.286,-281.651"/>
<polygon fill="#2a23f3" stroke="#2a23f3" points="669.536,-446.616 659.184,-442.997 664.555,-447.048 659.573,-447.481 659.573,-447.481 659.573,-447.481 664.555,-447.048 659.963,-451.964 669.536,-446.616 669.536,-446.616"/>
<polygon fill="#2a23f3" stroke="#2a23f3" points="911.227,-281.445 912.754,-270.586 909.83,-276.644 908.433,-271.843 908.433,-271.843 908.433,-271.843 909.83,-276.644 904.112,-273.1 911.227,-281.445 911.227,-281.445"/>
<text text-anchor="middle" x="953.5" y="-338.3" font-family="Times,serif" font-size="14.00">notify_users</text>
</g>
<!-- Comment -->
<g id="node25" class="node"><title>Comment</title>
<ellipse fill="none" stroke="black" cx="576" cy="-342" rx="46.2191" ry="18"/>
<text text-anchor="middle" x="576" y="-338.3" font-family="Times,serif" font-size="14.00">Comment</text>
</g>
<!-- Article&#45;&gt;Comment -->
<g id="edge12" class="edge"><title>Article&#45;&gt;Comment</title>
<path fill="none" stroke="#f0dc6a" d="M623.736,-424.759C622.147,-410.363 618.647,-392.38 611,-378 608.7,-373.675 605.69,-369.541 602.398,-365.727"/>
<ellipse fill="none" stroke="#f0dc6a" cx="624.103" cy="-428.784" rx="4" ry="4"/>
<polygon fill="#f0dc6a" stroke="#f0dc6a" points="602.296,-365.62 598.64,-355.281 598.841,-362.005 595.387,-358.39 595.387,-358.39 595.387,-358.39 598.841,-362.005 592.134,-361.499 602.296,-365.62 602.296,-365.62"/>
</g>
<!-- Article&#45;&gt;Comment -->
<g id="edge13" class="edge"><title>Article&#45;&gt;Comment</title>
<path fill="none" stroke="#7f39db" d="M604.893,-428.791C597.888,-422.512 589.612,-416.201 581,-412 543.945,-393.926 516.172,-425.856 490,-394 485.486,-388.505 486.031,-383.9 490,-378 492.777,-373.872 512.874,-365.586 532.941,-358.113"/>
<ellipse fill="none" stroke="#7f39db" cx="608.029" cy="-431.744" rx="4.00002" ry="4.00002"/>
<polygon fill="#7f39db" stroke="#7f39db" points="533.015,-358.086 543.953,-358.868 537.71,-356.364 542.404,-354.643 542.404,-354.643 542.404,-354.643 537.71,-356.364 540.855,-350.418 533.015,-358.086 533.015,-358.086"/>
<text text-anchor="middle" x="548.5" y="-382.3" font-family="Times,serif" font-size="14.00">published_comments</text>
</g>
<!-- Redirection -->
<g id="node26" class="node"><title>Redirection</title>
<ellipse fill="none" stroke="black" cx="846" cy="-18" rx="51.4931" ry="18"/>
<text text-anchor="middle" x="846" y="-14.3" font-family="Times,serif" font-size="14.00">Redirection</text>
</g>
<!-- Article&#45;&gt;Redirection -->
<g id="edge3" class="edge"><title>Article&#45;&gt;Redirection</title>
<path fill="none" stroke="#274850" d="M605.128,-428.277C598.137,-421.968 589.81,-415.768 581,-412 470.682,-364.816 320,-462.985 320,-343 320,-343 320,-343 320,-91 320,-44.5784 645.744,-26.6309 784.546,-21.0905"/>
<ellipse fill="none" stroke="#274850" cx="608.257" cy="-431.27" rx="4.00002" ry="4.00002"/>
<polygon fill="#274850" stroke="#274850" points="784.615,-21.0879 794.783,-25.1942 789.611,-20.8928 794.607,-20.6976 794.607,-20.6976 794.607,-20.6976 789.611,-20.8928 794.432,-16.2011 784.615,-21.0879 784.615,-21.0879"/>
</g>
<!-- Trackback -->
<g id="node27" class="node"><title>Trackback</title>
<ellipse fill="none" stroke="black" cx="726" cy="-342" rx="48.1437" ry="18"/>
<text text-anchor="middle" x="726" y="-338.3" font-family="Times,serif" font-size="14.00">Trackback</text>
</g>
<!-- Article&#45;&gt;Trackback -->
<g id="edge7" class="edge"><title>Article&#45;&gt;Trackback</title>
<path fill="none" stroke="#2006a2" d="M645.58,-428.197C662.477,-410.296 686.363,-384.991 703.71,-366.614"/>
<ellipse fill="none" stroke="#2006a2" cx="642.649" cy="-431.303" rx="4.00002" ry="4.00002"/>
<polygon fill="#2006a2" stroke="#2006a2" points="703.841,-366.476 713.977,-362.293 707.273,-362.84 710.705,-359.204 710.705,-359.204 710.705,-359.204 707.273,-362.84 707.432,-356.115 703.841,-366.476 703.841,-366.476"/>
</g>
<!-- Article&#45;&gt;Trackback -->
<g id="edge14" class="edge"><title>Article&#45;&gt;Trackback</title>
<path fill="none" stroke="#315171" d="M654.119,-432.346C668.851,-422.398 686.26,-408.975 699,-394 705.226,-386.682 710.577,-377.689 714.834,-369.304"/>
<ellipse fill="none" stroke="#315171" cx="650.476" cy="-434.743" rx="4.00002" ry="4.00002"/>
<polygon fill="#315171" stroke="#315171" points="714.863,-369.243 723.227,-362.151 717.013,-364.729 719.164,-360.216 719.164,-360.216 719.164,-360.216 717.013,-364.729 715.102,-358.28 714.863,-369.243 714.863,-369.243"/>
<text text-anchor="middle" x="769" y="-382.3" font-family="Times,serif" font-size="14.00">published_trackbacks</text>
</g>
<!-- Trigger -->
<g id="node31" class="node"><title>Trigger</title>
<ellipse fill="none" stroke="black" cx="1142" cy="-92" rx="37.0701" ry="18"/>
<text text-anchor="middle" x="1142" y="-88.3" font-family="Times,serif" font-size="14.00">Trigger</text>
</g>
<!-- Article&#45;&gt;Trigger -->
<g id="edge5" class="edge"><title>Article&#45;&gt;Trigger</title>
<path fill="none" stroke="#4fe3f0" d="M666.996,-445.386C732.25,-438.221 861.938,-423.994 972,-412 1045.77,-403.961 1064.83,-406.402 1138,-394 1236.96,-377.227 1358,-443.371 1358,-343 1358,-343 1358,-343 1358,-165 1358,-129.428 1251.24,-108.286 1187.83,-98.8661"/>
<ellipse fill="none" stroke="#4fe3f0" cx="662.96" cy="-445.83" rx="4.00001" ry="4.00001"/>
<polygon fill="#4fe3f0" stroke="#4fe3f0" points="1187.57,-98.8282 1178.31,-92.9474 1182.62,-98.1148 1177.67,-97.4014 1177.67,-97.4014 1177.67,-97.4014 1182.62,-98.1148 1177.03,-101.855 1187.57,-98.8282 1187.57,-98.8282"/>
</g>
<!-- Right -->
<g id="node6" class="node"><title>Right</title>
<ellipse fill="none" stroke="black" cx="1420" cy="-451" rx="30.3206" ry="18"/>
<text text-anchor="middle" x="1420" y="-447.3" font-family="Times,serif" font-size="14.00">Right</text>
</g>
<!-- Profile -->
<g id="node32" class="node"><title>Profile</title>
<ellipse fill="none" stroke="black" cx="1420" cy="-342" rx="34.1708" ry="18"/>
<text text-anchor="middle" x="1420" y="-338.3" font-family="Times,serif" font-size="14.00">Profile</text>
</g>
<!-- Right&#45;&gt;Profile -->
<g id="edge17" class="edge"><title>Right&#45;&gt;Profile</title>
<path fill="none" stroke="#a63ec5" d="M1420,-422.611C1420,-406.613 1420,-386.489 1420,-370.476"/>
<polygon fill="#a63ec5" stroke="#a63ec5" points="1420,-422.809 1415.5,-432.809 1420,-427.809 1420,-432.809 1420,-432.809 1420,-432.809 1420,-427.809 1424.5,-432.809 1420,-422.809 1420,-422.809"/>
<polygon fill="#a63ec5" stroke="#a63ec5" points="1420,-370.149 1424.5,-360.149 1420,-365.149 1420,-360.149 1420,-360.149 1420,-360.149 1420,-365.149 1415.5,-360.149 1420,-370.149 1420,-370.149"/>
</g>
<!-- Feedback::States -->
<g id="node7" class="node"><title>Feedback::States</title>
<polygon fill="none" stroke="black" stroke-dasharray="1,5" points="1577,-469 1469,-469 1469,-433 1577,-433 1577,-469"/>
<text text-anchor="middle" x="1523" y="-447.3" font-family="Times,serif" font-size="14.00">Feedback::States</text>
</g>
<!-- Theme -->
<g id="node9" class="node"><title>Theme</title>
<polygon fill="none" stroke="black" points="1650.25,-469 1595.75,-469 1595.75,-433 1650.25,-433 1650.25,-469"/>
<text text-anchor="middle" x="1623" y="-447.3" font-family="Times,serif" font-size="14.00">Theme</text>
</g>
<!-- BlogSweeper -->
<g id="node10" class="node"><title>BlogSweeper</title>
<polygon fill="none" stroke="black" points="1757.25,-469 1668.75,-469 1668.75,-433 1757.25,-433 1757.25,-469"/>
<text text-anchor="middle" x="1713" y="-447.3" font-family="Times,serif" font-size="14.00">BlogSweeper</text>
</g>
<!-- Blog -->
<g id="node11" class="node"><title>Blog</title>
<ellipse fill="none" stroke="black" cx="1803" cy="-451" rx="27.4223" ry="18"/>
<text text-anchor="middle" x="1803" y="-447.3" font-family="Times,serif" font-size="14.00">Blog</text>
</g>
<!-- Category&#45;&gt;Categorization -->
<g id="edge19" class="edge"><title>Category&#45;&gt;Categorization</title>
<path fill="none" stroke="#f338c9" d="M65.7043,-319.541C79.6486,-306.918 97.2816,-290.956 111.523,-278.064"/>
<ellipse fill="none" stroke="#f338c9" cx="62.3899" cy="-322.542" rx="4.00002" ry="4.00002"/>
<polygon fill="#f338c9" stroke="#f338c9" points="111.627,-277.969 122.061,-274.594 115.334,-274.614 119.041,-271.258 119.041,-271.258 119.041,-271.258 115.334,-274.614 116.02,-267.922 111.627,-277.969 111.627,-277.969"/>
</g>
<!-- Category&#45;&gt;Category -->
<g id="edge18" class="edge"><title>Category&#45;&gt;Category</title>
<path fill="none" stroke="#14cdc5" d="M87.9759,-349.773C96.2294,-348.769 102,-346.178 102,-342 102,-338.163 97.1331,-335.664 89.9458,-334.504"/>
<ellipse fill="none" stroke="#14cdc5" cx="83.7858" cy="-350.017" rx="4" ry="4"/>
<polygon fill="#14cdc5" stroke="#14cdc5" points="89.7651,-334.491 80.1257,-329.263 84.7788,-334.121 79.7925,-333.751 79.7925,-333.751 79.7925,-333.751 84.7788,-334.121 79.4593,-338.238 89.7651,-334.491 89.7651,-334.491"/>
<text text-anchor="middle" x="124.5" y="-338.3" font-family="Times,serif" font-size="14.00">children</text>
</g>
<!-- Content -->
<g id="node13" class="node"><title>Content</title>
<ellipse fill="none" stroke="black" cx="905" cy="-166" rx="38.0212" ry="18"/>
<text text-anchor="middle" x="905" y="-162.3" font-family="Times,serif" font-size="14.00">Content</text>
</g>
<!-- Content&#45;&gt;Notification -->
<g id="edge20" class="edge"><title>Content&#45;&gt;Notification</title>
<path fill="none" stroke="#83beca" d="M879.439,-145.486C870.473,-139.28 860.11,-132.792 850,-128 838.033,-122.328 809.775,-113.768 784.147,-106.534"/>
<ellipse fill="none" stroke="#83beca" cx="882.735" cy="-147.827" rx="4.00002" ry="4.00002"/>
<polygon fill="#83beca" stroke="#83beca" points="784.124,-106.527 775.705,-99.501 779.309,-105.181 774.493,-103.835 774.493,-103.835 774.493,-103.835 779.309,-105.181 773.282,-108.169 784.124,-106.527 784.124,-106.527"/>
</g>
<!-- Content&#45;&gt;Redirect -->
<g id="edge23" class="edge"><title>Content&#45;&gt;Redirect</title>
<path fill="none" stroke="#2e75cc" d="M885.445,-140.807C881.974,-136.533 878.386,-132.131 875,-128 872.05,-124.401 868.921,-120.603 865.851,-116.889"/>
<polygon fill="#2e75cc" stroke="#2e75cc" points="885.596,-140.993 888.399,-151.594 888.745,-144.877 891.894,-148.76 891.894,-148.76 891.894,-148.76 888.745,-144.877 895.39,-145.926 885.596,-140.993 885.596,-140.993"/>
<polygon fill="#2e75cc" stroke="#2e75cc" points="865.696,-116.702 862.784,-106.13 862.507,-112.851 859.318,-109.001 859.318,-109.001 859.318,-109.001 862.507,-112.851 855.852,-111.871 865.696,-116.702 865.696,-116.702"/>
</g>
<!-- Content&#45;&gt;User -->
<g id="edge21" class="edge"><title>Content&#45;&gt;User</title>
<path fill="none" stroke="#192531" d="M914.882,-193.688C916.659,-201.508 917.524,-210.084 916,-218 915.413,-221.051 914.562,-224.173 913.565,-227.236"/>
<polygon fill="#192531" stroke="#192531" points="914.854,-193.587 916.476,-182.742 913.499,-188.774 912.144,-183.961 912.144,-183.961 912.144,-183.961 913.499,-188.774 907.813,-185.181 914.854,-193.587 914.854,-193.587"/>
<polygon fill="#192531" stroke="#192531" points="913.543,-227.295 905.817,-235.076 911.787,-231.976 910.03,-236.657 910.03,-236.657 910.03,-236.657 911.787,-231.976 914.243,-238.238 913.543,-227.295 913.543,-227.295"/>
<text text-anchor="middle" x="950.5" y="-206.3" font-family="Times,serif" font-size="14.00">notify_users</text>
</g>
<!-- Content&#45;&gt;Redirection -->
<g id="edge22" class="edge"><title>Content&#45;&gt;Redirection</title>
<path fill="none" stroke="#a4138f" d="M906.275,-139.633C906.279,-120.758 904.244,-94.778 895,-74 889.72,-62.1332 880.918,-51.0256 872.218,-41.9425"/>
<ellipse fill="none" stroke="#a4138f" cx="906.211" cy="-143.762" rx="4" ry="4"/>
<polygon fill="#a4138f" stroke="#a4138f" points="872.124,-41.8492 868.179,-31.6174 868.569,-38.3329 865.015,-34.8166 865.015,-34.8166 865.015,-34.8166 868.569,-38.3329 861.85,-38.0159 872.124,-41.8492 872.124,-41.8492"/>
</g>
<!-- Content&#45;&gt;Trigger -->
<g id="edge24" class="edge"><title>Content&#45;&gt;Trigger</title>
<path fill="none" stroke="#09f137" d="M944.303,-153.06C987.878,-139.822 1057.8,-118.579 1101.75,-105.227"/>
<ellipse fill="none" stroke="#09f137" cx="940.299" cy="-154.276" rx="4.00001" ry="4.00001"/>
<polygon fill="#09f137" stroke="#09f137" points="1101.96,-105.165 1112.83,-106.564 1106.74,-103.712 1111.53,-102.258 1111.53,-102.258 1111.53,-102.258 1106.74,-103.712 1110.22,-97.9525 1101.96,-105.165 1101.96,-105.165"/>
</g>
<!-- NotificationMailer -->
<g id="node15" class="node"><title>NotificationMailer</title>
<polygon fill="none" stroke="black" points="1967.25,-469 1848.75,-469 1848.75,-433 1967.25,-433 1967.25,-469"/>
<text text-anchor="middle" x="1908" y="-447.3" font-family="Times,serif" font-size="14.00">NotificationMailer</text>
</g>
<!-- WebNotifier -->
<g id="node16" class="node"><title>WebNotifier</title>
<polygon fill="none" stroke="black" points="2072,-469 1986,-469 1986,-433 2072,-433 2072,-469"/>
<text text-anchor="middle" x="2029" y="-447.3" font-family="Times,serif" font-size="14.00">WebNotifier</text>
</g>
<!-- Feedback&#45;&gt;Notification -->
<g id="edge25" class="edge"><title>Feedback&#45;&gt;Notification</title>
<path fill="none" stroke="#fb373a" d="M1186.92,-318.716C1178.11,-309.43 1167.42,-298.786 1157,-290 1072.27,-218.552 1053.06,-193.508 952,-148 887.326,-118.877 865.689,-127.685 797,-110 792.687,-108.89 788.213,-107.719 783.729,-106.534"/>
<ellipse fill="none" stroke="#fb373a" cx="1189.68" cy="-321.668" rx="4.00002" ry="4.00002"/>
<polygon fill="#fb373a" stroke="#fb373a" points="783.619,-106.505 775.114,-99.5828 778.788,-105.218 773.956,-103.931 773.956,-103.931 773.956,-103.931 778.788,-105.218 772.798,-108.28 783.619,-106.505 783.619,-106.505"/>
</g>
<!-- Feedback&#45;&gt;Redirect -->
<g id="edge28" class="edge"><title>Feedback&#45;&gt;Redirect</title>
<path fill="none" stroke="#5dbe9a" d="M1218.95,-314.817C1221.05,-306.622 1221.58,-297.711 1218,-290 1172.89,-192.741 1120.96,-191.561 1023,-148 979.461,-128.639 927.07,-113.274 890.634,-103.76"/>
<polygon fill="#5dbe9a" stroke="#5dbe9a" points="1218.95,-314.843 1211.51,-322.906 1217.36,-319.586 1215.78,-324.329 1215.78,-324.329 1215.78,-324.329 1217.36,-319.586 1220.05,-325.752 1218.95,-314.843 1218.95,-314.843"/>
<polygon fill="#5dbe9a" stroke="#5dbe9a" points="890.487,-103.722 881.921,-96.875 885.644,-102.478 880.801,-101.233 880.801,-101.233 880.801,-101.233 885.644,-102.478 879.681,-105.592 890.487,-103.722 890.487,-103.722"/>
</g>
<!-- Feedback&#45;&gt;User -->
<g id="edge26" class="edge"><title>Feedback&#45;&gt;User</title>
<path fill="none" stroke="#f0b6ac" d="M1162.54,-327.768C1127.21,-317.321 1076.51,-302.477 1032,-290 999.813,-280.978 963.017,-271.113 936.806,-264.163"/>
<polygon fill="#f0b6ac" stroke="#f0b6ac" points="1162.94,-327.887 1171.25,-335.041 1167.73,-329.307 1172.53,-330.726 1172.53,-330.726 1172.53,-330.726 1167.73,-329.307 1173.8,-326.412 1162.94,-327.887 1162.94,-327.887"/>
<polygon fill="#f0b6ac" stroke="#f0b6ac" points="936.631,-264.116 928.115,-257.208 931.797,-262.837 926.964,-261.558 926.964,-261.558 926.964,-261.558 931.797,-262.837 925.812,-265.908 936.631,-264.116 936.631,-264.116"/>
<text text-anchor="middle" x="1119.5" y="-294.3" font-family="Times,serif" font-size="14.00">notify_users</text>
</g>
<!-- Feedback&#45;&gt;Redirection -->
<g id="edge27" class="edge"><title>Feedback&#45;&gt;Redirection</title>
<path fill="none" stroke="#009696" d="M1249.39,-327.872C1281.46,-315 1320,-291.86 1320,-255 1320,-255 1320,-255 1320,-91 1320,-49.6691 1034.67,-29.1311 906.763,-22.0007"/>
<ellipse fill="none" stroke="#009696" cx="1245.56" cy="-329.34" rx="4.00001" ry="4.00001"/>
<polygon fill="#009696" stroke="#009696" points="906.711,-21.998 896.973,-16.9575 901.719,-21.7244 896.726,-21.4508 896.726,-21.4508 896.726,-21.4508 901.719,-21.7244 896.48,-25.9441 906.711,-21.998 906.711,-21.998"/>
</g>
<!-- Feedback&#45;&gt;Trigger -->
<g id="edge29" class="edge"><title>Feedback&#45;&gt;Trigger</title>
<path fill="none" stroke="#1521ec" d="M1233.62,-320.24C1237.44,-315.97 1240.81,-311.179 1243,-306 1245.77,-299.45 1244.34,-296.984 1243,-290 1228.31,-213.309 1218.3,-192.983 1175,-128 1172.25,-123.873 1169,-119.778 1165.63,-115.922"/>
<ellipse fill="none" stroke="#1521ec" cx="1230.61" cy="-323.27" rx="4.00002" ry="4.00002"/>
<polygon fill="#1521ec" stroke="#1521ec" points="1165.47,-115.743 1161.97,-105.349 1162.07,-112.076 1158.67,-108.408 1158.67,-108.408 1158.67,-108.408 1162.07,-112.076 1155.37,-111.467 1165.47,-115.743 1165.47,-115.743"/>
</g>
<!-- Page -->
<g id="node18" class="node"><title>Page</title>
<ellipse fill="none" stroke="black" cx="1067" cy="-342" rx="27.4223" ry="18"/>
<text text-anchor="middle" x="1067" y="-338.3" font-family="Times,serif" font-size="14.00">Page</text>
</g>
<!-- Page&#45;&gt;Notification -->
<g id="edge30" class="edge"><title>Page&#45;&gt;Notification</title>
<path fill="none" stroke="#c89d35" d="M1051.52,-318.258C1044.78,-309.056 1036.49,-298.598 1028,-290 983.531,-244.944 972.05,-231.426 916,-202 892.103,-189.454 882.1,-196.152 858,-184 821.154,-165.422 783.609,-136.114 759.634,-115.8"/>
<ellipse fill="none" stroke="#c89d35" cx="1054.02" cy="-321.748" rx="4.00002" ry="4.00002"/>
<polygon fill="#c89d35" stroke="#c89d35" points="759.631,-115.798 754.975,-105.87 755.838,-112.541 752.044,-109.284 752.044,-109.284 752.044,-109.284 755.838,-112.541 749.113,-112.699 759.631,-115.798 759.631,-115.798"/>
</g>
<!-- Page&#45;&gt;Redirect -->
<g id="edge33" class="edge"><title>Page&#45;&gt;Redirect</title>
<path fill="none" stroke="#f7db71" d="M1061.47,-313.998C1059.35,-306.059 1056.56,-297.498 1053,-290 1019.8,-220.032 1010.45,-198.81 952,-148 932.461,-131.015 906.762,-117.513 885.562,-108.138"/>
<polygon fill="#f7db71" stroke="#f7db71" points="1061.52,-314.217 1059.51,-324.996 1062.7,-319.076 1063.88,-323.935 1063.88,-323.935 1063.88,-323.935 1062.7,-319.076 1068.26,-322.873 1061.52,-314.217 1061.52,-314.217"/>
<polygon fill="#f7db71" stroke="#f7db71" points="885.37,-108.056 877.946,-99.9862 880.773,-106.09 876.176,-104.124 876.176,-104.124 876.176,-104.124 880.773,-106.09 874.406,-108.261 885.37,-108.056 885.37,-108.056"/>
</g>
<!-- Page&#45;&gt;User -->
<g id="edge31" class="edge"><title>Page&#45;&gt;User</title>
<path fill="none" stroke="#eb8572" d="M1031.05,-332.911C1009.81,-327.227 982.876,-318.405 961,-306 947.163,-298.154 933.6,-286.768 922.974,-276.744"/>
<polygon fill="#eb8572" stroke="#eb8572" points="1031.29,-332.972 1039.86,-339.811 1036.13,-334.211 1040.98,-335.451 1040.98,-335.451 1040.98,-335.451 1036.13,-334.211 1042.09,-331.092 1031.29,-332.972 1031.29,-332.972"/>
<polygon fill="#eb8572" stroke="#eb8572" points="922.96,-276.73 918.933,-266.531 919.377,-273.243 915.794,-269.756 915.794,-269.756 915.794,-269.756 919.377,-273.243 912.655,-272.98 922.96,-276.73 922.96,-276.73"/>
<text text-anchor="middle" x="994.5" y="-294.3" font-family="Times,serif" font-size="14.00">notify_users</text>
</g>
<!-- Page&#45;&gt;Redirection -->
<g id="edge32" class="edge"><title>Page&#45;&gt;Redirection</title>
<path fill="none" stroke="#7eaa01" d="M1101.53,-334.611C1162.3,-322.373 1282,-293.396 1282,-255 1282,-255 1282,-255 1282,-91 1282,-53.4004 1026.33,-31.1651 906.557,-22.8116"/>
<ellipse fill="none" stroke="#7eaa01" cx="1097.29" cy="-335.45" rx="4.00001" ry="4.00001"/>
<polygon fill="#7eaa01" stroke="#7eaa01" points="906.417,-22.802 896.749,-17.6271 901.429,-22.4593 896.441,-22.1165 896.441,-22.1165 896.441,-22.1165 901.429,-22.4593 896.132,-26.6059 906.417,-22.802 906.417,-22.802"/>
</g>
<!-- Page&#45;&gt;Trigger -->
<g id="edge34" class="edge"><title>Page&#45;&gt;Trigger</title>
<path fill="none" stroke="#42baf8" d="M1080.66,-317.701C1097.36,-287.859 1124.91,-234.007 1137,-184 1142.07,-163.014 1143.16,-138.546 1143.07,-120.27"/>
<ellipse fill="none" stroke="#42baf8" cx="1078.63" cy="-321.274" rx="4.00002" ry="4.00002"/>
<polygon fill="#42baf8" stroke="#42baf8" points="1143.06,-120.037 1147.39,-109.961 1142.98,-115.038 1142.89,-110.038 1142.89,-110.038 1142.89,-110.038 1142.98,-115.038 1138.39,-110.116 1143.06,-120.037 1143.06,-120.037"/>
</g>
<!-- Redirect&#45;&gt;Redirection -->
<g id="edge35" class="edge"><title>Redirect&#45;&gt;Redirection</title>
<path fill="none" stroke="#b207cd" d="M846,-65.7923C846,-59.5805 846,-52.8963 846,-46.5786"/>
<ellipse fill="none" stroke="#b207cd" cx="846" cy="-69.937" rx="4" ry="4"/>
<polygon fill="#b207cd" stroke="#b207cd" points="846,-46.4407 850.5,-36.4406 846,-41.4407 846,-36.4407 846,-36.4407 846,-36.4407 846,-41.4407 841.5,-36.4407 846,-46.4407 846,-46.4407"/>
</g>
<!-- ConfigManager -->
<g id="node21" class="node"><title>ConfigManager</title>
<polygon fill="none" stroke="black" stroke-dasharray="1,5" points="2193.25,-469 2090.75,-469 2090.75,-433 2193.25,-433 2193.25,-469"/>
<text text-anchor="middle" x="2142" y="-447.3" font-family="Times,serif" font-size="14.00">ConfigManager</text>
</g>
<!-- Article::States -->
<g id="node22" class="node"><title>Article::States</title>
<polygon fill="none" stroke="black" stroke-dasharray="1,5" points="2306,-469 2212,-469 2212,-433 2306,-433 2306,-469"/>
<text text-anchor="middle" x="2259" y="-447.3" font-family="Times,serif" font-size="14.00">Article::States</text>
</g>
<!-- User&#45;&gt;Notification -->
<g id="edge36" class="edge"><title>User&#45;&gt;Notification</title>
<path fill="none" stroke="#f4a818" d="M869.458,-243.865C853.39,-238.232 834.412,-229.794 820,-218 786.446,-190.543 760.488,-146.72 746.229,-118.927"/>
<ellipse fill="none" stroke="#f4a818" cx="873.285" cy="-245.141" rx="4.00001" ry="4.00001"/>
<polygon fill="#f4a818" stroke="#f4a818" points="746.148,-118.764 745.706,-107.807 743.914,-114.291 741.68,-109.817 741.68,-109.817 741.68,-109.817 743.914,-114.291 737.654,-111.828 746.148,-118.764 746.148,-118.764"/>
</g>
<!-- User&#45;&gt;Article -->
<g id="edge38" class="edge"><title>User&#45;&gt;Article</title>
<path fill="none" stroke="#327a9a" d="M896.77,-279.847C888.69,-311.683 869.963,-366.079 832,-394 783.864,-429.402 714.722,-442.425 669.833,-447.215"/>
<ellipse fill="none" stroke="#327a9a" cx="897.751" cy="-275.777" rx="4.00001" ry="4.00001"/>
<polygon fill="#327a9a" stroke="#327a9a" points="669.759,-447.222 659.37,-443.712 664.783,-447.707 659.806,-448.191 659.806,-448.191 659.806,-448.191 664.783,-447.707 660.242,-452.67 669.759,-447.222 669.759,-447.222"/>
</g>
<!-- User&#45;&gt;Content -->
<g id="edge37" class="edge"><title>User&#45;&gt;Content</title>
<path fill="none" stroke="#2bdce3" d="M867.063,-244.074C841.821,-235.777 814.234,-221.721 827,-202 834.724,-190.069 847.582,-182.166 860.654,-176.948"/>
<polygon fill="#2bdce3" stroke="#2bdce3" points="867.326,-244.154 875.578,-251.377 872.109,-245.614 876.891,-247.073 876.891,-247.073 876.891,-247.073 872.109,-245.614 878.204,-242.769 867.326,-244.154 867.326,-244.154"/>
<polygon fill="#2bdce3" stroke="#2bdce3" points="860.709,-176.929 871.636,-177.848 865.425,-175.266 870.14,-173.604 870.14,-173.604 870.14,-173.604 865.425,-175.266 868.644,-169.36 860.709,-176.929 860.709,-176.929"/>
<text text-anchor="middle" x="869.5" y="-206.3" font-family="Times,serif" font-size="14.00">notify_contents</text>
</g>
<!-- TextFilter -->
<g id="node24" class="node"><title>TextFilter</title>
<ellipse fill="none" stroke="black" cx="2370" cy="-451" rx="46.2191" ry="18"/>
<text text-anchor="middle" x="2370" y="-447.3" font-family="Times,serif" font-size="14.00">TextFilter</text>
</g>
<!-- Comment&#45;&gt;Notification -->
<g id="edge39" class="edge"><title>Comment&#45;&gt;Notification</title>
<path fill="none" stroke="#8043eb" d="M543.146,-322.188C537.834,-317.606 533.075,-312.204 530,-306 509.312,-264.264 512.682,-237.365 543,-202 582.042,-156.458 645.106,-125.76 687.999,-108.84"/>
<ellipse fill="none" stroke="#8043eb" cx="546.412" cy="-324.731" rx="4.00002" ry="4.00002"/>
<polygon fill="#8043eb" stroke="#8043eb" points="688.033,-108.827 698.982,-109.437 692.699,-107.032 697.366,-105.237 697.366,-105.237 697.366,-105.237 692.699,-107.032 695.75,-101.037 688.033,-108.827 688.033,-108.827"/>
</g>
<!-- Comment&#45;&gt;Redirect -->
<g id="edge42" class="edge"><title>Comment&#45;&gt;Redirect</title>
<path fill="none" stroke="#9b2325" d="M580.27,-313.844C589.358,-266.373 615.507,-169.419 682,-128 725.538,-100.879 746.202,-122.301 796,-110 799.396,-109.161 802.891,-108.195 806.379,-107.157"/>
<polygon fill="#9b2325" stroke="#9b2325" points="580.264,-313.878 574.062,-322.922 579.377,-318.799 578.491,-323.72 578.491,-323.72 578.491,-323.72 579.377,-318.799 582.92,-324.518 580.264,-313.878 580.264,-313.878"/>
<polygon fill="#9b2325" stroke="#9b2325" points="806.568,-107.098 817.458,-108.385 811.337,-105.595 816.106,-104.093 816.106,-104.093 816.106,-104.093 811.337,-105.595 814.753,-99.8007 806.568,-107.098 806.568,-107.098"/>
</g>
<!-- Comment&#45;&gt;User -->
<g id="edge40" class="edge"><title>Comment&#45;&gt;User</title>
<path fill="none" stroke="#51737c" d="M617.475,-325.387C647.567,-314.455 689.418,-300.06 727,-290 774.535,-277.275 830.446,-266.868 866.043,-260.8"/>
<polygon fill="#51737c" stroke="#51737c" points="617.133,-325.512 606.196,-324.725 612.438,-327.231 607.743,-328.951 607.743,-328.951 607.743,-328.951 612.438,-327.231 609.291,-333.176 617.133,-325.512 617.133,-325.512"/>
<polygon fill="#51737c" stroke="#51737c" points="866.102,-260.791 876.71,-263.57 871.033,-259.962 875.963,-259.132 875.963,-259.132 875.963,-259.132 871.033,-259.962 875.217,-254.695 866.102,-260.791 866.102,-260.791"/>
<text text-anchor="middle" x="760.5" y="-294.3" font-family="Times,serif" font-size="14.00">notify_users</text>
</g>
<!-- Comment&#45;&gt;Redirection -->
<g id="edge41" class="edge"><title>Comment&#45;&gt;Redirection</title>
<path fill="none" stroke="#31dd2b" d="M533.959,-326.677C503.629,-313.372 468,-290.243 468,-255 468,-255 468,-255 468,-91 468,-27.4153 677.007,-18.5819 784.189,-18.2323"/>
<ellipse fill="none" stroke="#31dd2b" cx="537.842" cy="-328.304" rx="4.00002" ry="4.00002"/>
<polygon fill="#31dd2b" stroke="#31dd2b" points="784.233,-18.2324 794.237,-22.7234 789.233,-18.2279 794.233,-18.2234 794.233,-18.2234 794.233,-18.2234 789.233,-18.2279 794.229,-13.7234 784.233,-18.2324 784.233,-18.2324"/>
</g>
<!-- Comment&#45;&gt;Trigger -->
<g id="edge43" class="edge"><title>Comment&#45;&gt;Trigger</title>
<path fill="none" stroke="#6b720b" d="M603.115,-320.865C646.474,-289.79 735.19,-230.735 820,-202 876.078,-183 895.281,-200.993 952,-184 1010.94,-166.34 1074.48,-132.589 1111.11,-111.524"/>
<ellipse fill="none" stroke="#6b720b" cx="599.796" cy="-323.262" rx="4.00002" ry="4.00002"/>
<polygon fill="#6b720b" stroke="#6b720b" points="1111.17,-111.484 1122.08,-110.35 1115.5,-108.972 1119.82,-106.459 1119.82,-106.459 1119.82,-106.459 1115.5,-108.972 1117.56,-102.568 1111.17,-111.484 1111.17,-111.484"/>
</g>
<!-- Trackback&#45;&gt;Notification -->
<g id="edge44" class="edge"><title>Trackback&#45;&gt;Notification</title>
<path fill="none" stroke="#df9b7e" d="M688.646,-323.285C682.357,-318.576 676.683,-312.846 673,-306 669.631,-299.738 672.803,-297.108 673,-290 675.001,-217.917 646.362,-190.689 682,-128 685.361,-122.089 690.178,-116.978 695.542,-112.629"/>
<ellipse fill="none" stroke="#df9b7e" cx="692.329" cy="-325.764" rx="4.00002" ry="4.00002"/>
<polygon fill="#df9b7e" stroke="#df9b7e" points="695.555,-112.62 706.305,-110.457 699.62,-109.709 703.685,-106.798 703.685,-106.798 703.685,-106.798 699.62,-109.709 701.065,-103.14 695.555,-112.62 695.555,-112.62"/>
</g>
<!-- Trackback&#45;&gt;Redirect -->
<g id="edge47" class="edge"><title>Trackback&#45;&gt;Redirect</title>
<path fill="none" stroke="#cec67c" d="M742.549,-315.518C744.449,-312.349 746.309,-309.124 748,-306 783.373,-240.66 818.125,-160.21 835.159,-119.415"/>
<polygon fill="#cec67c" stroke="#cec67c" points="742.455,-315.67 733.368,-321.808 739.825,-319.922 737.195,-324.175 737.195,-324.175 737.195,-324.175 739.825,-319.922 741.022,-326.542 742.455,-315.67 742.455,-315.67"/>
<polygon fill="#cec67c" stroke="#cec67c" points="835.262,-119.167 843.253,-111.657 837.179,-114.549 839.097,-109.932 839.097,-109.932 839.097,-109.932 837.179,-114.549 834.941,-108.206 835.262,-119.167 835.262,-119.167"/>
</g>
<!-- Trackback&#45;&gt;User -->
<g id="edge45" class="edge"><title>Trackback&#45;&gt;User</title>
<path fill="none" stroke="#783dbd" d="M765.207,-323.305C776.011,-318.063 787.613,-312.088 798,-306 808.743,-299.703 810.119,-296.055 821,-290 836.373,-281.445 854.254,-273.522 869.299,-267.385"/>
<polygon fill="#783dbd" stroke="#783dbd" points="764.995,-323.406 754.031,-323.645 760.481,-325.557 755.967,-327.707 755.967,-327.707 755.967,-327.707 760.481,-325.557 757.903,-331.77 764.995,-323.406 764.995,-323.406"/>
<polygon fill="#783dbd" stroke="#783dbd" points="869.435,-267.331 880.391,-267.801 874.079,-265.477 878.722,-263.622 878.722,-263.622 878.722,-263.622 874.079,-265.477 877.053,-259.443 869.435,-267.331 869.435,-267.331"/>
<text text-anchor="middle" x="854.5" y="-294.3" font-family="Times,serif" font-size="14.00">notify_users</text>
</g>
<!-- Trackback&#45;&gt;Redirection -->
<g id="edge46" class="edge"><title>Trackback&#45;&gt;Redirection</title>
<path fill="none" stroke="#a97c12" d="M688.674,-323.27C682.382,-318.562 676.701,-312.837 673,-306 623.916,-215.32 611.059,-157.176 672,-74 697.525,-39.1623 745.204,-25.8311 784.205,-20.9804"/>
<ellipse fill="none" stroke="#a97c12" cx="692.357" cy="-325.75" rx="4.00002" ry="4.00002"/>
<polygon fill="#a97c12" stroke="#a97c12" points="784.489,-20.9498 794.915,-24.3478 789.46,-20.4118 794.431,-19.8739 794.431,-19.8739 794.431,-19.8739 789.46,-20.4118 793.947,-15.4 784.489,-20.9498 784.489,-20.9498"/>
</g>
<!-- Trackback&#45;&gt;Trigger -->
<g id="edge48" class="edge"><title>Trackback&#45;&gt;Trigger</title>
<path fill="none" stroke="#715766" d="M749.962,-319.729C776.76,-296.756 822.174,-260.206 866,-236 885.58,-225.185 892.786,-227.577 913,-218 925.953,-211.863 927.459,-206.699 941,-202 991.949,-184.32 1013.57,-209.674 1061,-184 1089.32,-168.67 1112.6,-139.387 1126.83,-118.171"/>
<ellipse fill="none" stroke="#715766" cx="746.913" cy="-322.364" rx="4.00002" ry="4.00002"/>
<polygon fill="#715766" stroke="#715766" points="1126.92,-118.029 1136.13,-112.082 1129.64,-113.832 1132.35,-109.636 1132.35,-109.636 1132.35,-109.636 1129.64,-113.832 1128.58,-107.189 1126.92,-118.029 1126.92,-118.029"/>
</g>
<!-- PageCache -->
<g id="node28" class="node"><title>PageCache</title>
<polygon fill="none" stroke="black" points="2511.25,-469 2434.75,-469 2434.75,-433 2511.25,-433 2511.25,-469"/>
<text text-anchor="middle" x="2473" y="-447.3" font-family="Times,serif" font-size="14.00">PageCache</text>
</g>
<!-- EmailNotifier -->
<g id="node29" class="node"><title>EmailNotifier</title>
<polygon fill="none" stroke="black" points="2622,-469 2530,-469 2530,-433 2622,-433 2622,-469"/>
<text text-anchor="middle" x="2576" y="-447.3" font-family="Times,serif" font-size="14.00">EmailNotifier</text>
</g>
<!-- Sidebar -->
<g id="node30" class="node"><title>Sidebar</title>
<ellipse fill="none" stroke="black" cx="2678" cy="-451" rx="37.5442" ry="18"/>
<text text-anchor="middle" x="2678" y="-447.3" font-family="Times,serif" font-size="14.00">Sidebar</text>
</g>
</g>
</svg>
